G75*
%MOIN*%
%OFA0B0*%
%FSLAX24Y24*%
%IPPOS*%
%LPD*%
%AMOC8*
5,1,8,0,0,1.08239X$1,22.5*
%
%ADD10OC8,0.0660*%
%ADD11C,0.0520*%
%ADD12C,0.0740*%
%ADD13C,0.0520*%
%ADD14R,0.1560X0.1560*%
%ADD15C,0.1250*%
%ADD16C,0.0860*%
%ADD17C,0.0160*%
%ADD18C,0.0400*%
%ADD19C,0.0120*%
D10*
X017680Y023352D03*
X018680Y023352D03*
D11*
X014640Y022852D02*
X014120Y022852D01*
X014120Y021852D02*
X014640Y021852D01*
X014640Y023852D02*
X014120Y023852D01*
X014120Y024852D02*
X014640Y024852D01*
X011640Y024852D02*
X011120Y024852D01*
X011120Y023852D02*
X011640Y023852D01*
X011640Y022852D02*
X011120Y022852D01*
X011120Y021852D02*
X011640Y021852D01*
D12*
X020880Y022752D03*
X020880Y023752D03*
X020880Y024752D03*
X020880Y025752D03*
X020880Y026752D03*
X020880Y027752D03*
X020880Y020752D03*
X020880Y019752D03*
X020880Y018752D03*
X020880Y017752D03*
X020880Y016752D03*
X020880Y015752D03*
X020880Y014752D03*
X020880Y013752D03*
X001880Y013252D03*
X001880Y012252D03*
X001880Y011252D03*
X001880Y010252D03*
X001880Y014252D03*
X001880Y015252D03*
X001880Y016252D03*
X001880Y017252D03*
X001880Y018252D03*
X001880Y019252D03*
X001880Y020752D03*
X001880Y021752D03*
X001880Y022752D03*
X001880Y023752D03*
X001880Y024752D03*
X001880Y025752D03*
X001880Y026752D03*
X001880Y027752D03*
D13*
X008080Y022552D03*
X008080Y021552D03*
D14*
X006280Y025752D03*
D15*
X003680Y025752D03*
X008880Y025752D03*
D16*
X010511Y007952D03*
X011889Y007952D03*
X016011Y008052D03*
X017389Y008052D03*
X006389Y007952D03*
X005011Y007952D03*
D17*
X002079Y006732D02*
X001360Y007451D01*
X001360Y010071D01*
X001414Y009941D01*
X001568Y009786D01*
X001771Y009702D01*
X001989Y009702D01*
X002192Y009786D01*
X002346Y009941D01*
X002430Y010143D01*
X002430Y010362D01*
X002346Y010564D01*
X002192Y010719D01*
X002110Y010752D01*
X002192Y010786D01*
X002346Y010941D01*
X002430Y011143D01*
X002430Y011362D01*
X002346Y011564D01*
X002192Y011719D01*
X002110Y011752D01*
X002192Y011786D01*
X002346Y011941D01*
X002430Y012143D01*
X002430Y012362D01*
X002346Y012564D01*
X002192Y012719D01*
X002110Y012752D01*
X002168Y012782D01*
X002238Y012833D01*
X002300Y012894D01*
X002350Y012964D01*
X002390Y013041D01*
X002416Y013124D01*
X002430Y013209D01*
X002430Y013232D01*
X001900Y013232D01*
X001900Y013272D01*
X002430Y013272D01*
X002430Y013296D01*
X002416Y013381D01*
X002390Y013463D01*
X002350Y013541D01*
X002300Y013611D01*
X002238Y013672D01*
X002168Y013723D01*
X002110Y013752D01*
X002192Y013786D01*
X002346Y013941D01*
X002430Y014143D01*
X002430Y014362D01*
X002346Y014564D01*
X002192Y014719D01*
X002110Y014752D01*
X002192Y014786D01*
X002346Y014941D01*
X002430Y015143D01*
X002430Y015362D01*
X002346Y015564D01*
X002192Y015719D01*
X002110Y015752D01*
X002192Y015786D01*
X002346Y015941D01*
X002430Y016143D01*
X002430Y016362D01*
X002346Y016564D01*
X002192Y016719D01*
X002110Y016752D01*
X002192Y016786D01*
X002346Y016941D01*
X002430Y017143D01*
X002430Y017362D01*
X002346Y017564D01*
X002192Y017719D01*
X002110Y017752D01*
X002192Y017786D01*
X002346Y017941D01*
X002430Y018143D01*
X002430Y018362D01*
X002346Y018564D01*
X002192Y018719D01*
X002110Y018752D01*
X002192Y018786D01*
X002346Y018941D01*
X002430Y019143D01*
X002430Y019362D01*
X002346Y019564D01*
X002192Y019719D01*
X001989Y019802D01*
X001771Y019802D01*
X001568Y019719D01*
X001414Y019564D01*
X001360Y019434D01*
X001360Y020571D01*
X001414Y020441D01*
X001568Y020286D01*
X001771Y020202D01*
X001989Y020202D01*
X002192Y020286D01*
X002218Y020312D01*
X003481Y020312D01*
X005200Y018593D01*
X005200Y018477D01*
X005258Y018337D01*
X005365Y018230D01*
X005504Y018172D01*
X005656Y018172D01*
X005795Y018230D01*
X005902Y018337D01*
X005960Y018477D01*
X005960Y018628D01*
X005902Y018768D01*
X005795Y018875D01*
X005656Y018932D01*
X005539Y018932D01*
X010361Y018932D01*
X010519Y018774D02*
X005896Y018774D01*
X005960Y018615D02*
X010678Y018615D01*
X010836Y018457D02*
X005952Y018457D01*
X005863Y018298D02*
X010995Y018298D01*
X011153Y018140D02*
X002429Y018140D01*
X002430Y018298D02*
X005297Y018298D01*
X005208Y018457D02*
X002391Y018457D01*
X002295Y018615D02*
X005178Y018615D01*
X005019Y018774D02*
X002162Y018774D01*
X002338Y018932D02*
X004861Y018932D01*
X004702Y019091D02*
X002408Y019091D01*
X002430Y019249D02*
X004544Y019249D01*
X004385Y019408D02*
X002411Y019408D01*
X002344Y019566D02*
X004227Y019566D01*
X004068Y019725D02*
X002176Y019725D01*
X001584Y019725D02*
X001360Y019725D01*
X001360Y019883D02*
X003910Y019883D01*
X003751Y020042D02*
X001360Y020042D01*
X001360Y020200D02*
X003593Y020200D01*
X003954Y020517D02*
X008776Y020517D01*
X008681Y020612D02*
X011900Y017393D01*
X011900Y017277D01*
X011958Y017137D01*
X012065Y017030D01*
X012204Y016972D01*
X012356Y016972D01*
X012495Y017030D01*
X012602Y017137D01*
X012660Y017277D01*
X012660Y017428D01*
X012602Y017568D01*
X012495Y017675D01*
X012356Y017732D01*
X012239Y017732D01*
X008983Y020988D01*
X008916Y021056D01*
X008828Y021092D01*
X003179Y021092D01*
X002430Y021842D01*
X002430Y021862D01*
X002346Y022064D01*
X002192Y022219D01*
X002110Y022252D01*
X002192Y022286D01*
X002346Y022441D01*
X002430Y022643D01*
X002430Y022712D01*
X007628Y022712D01*
X007679Y022734D01*
X007640Y022640D01*
X007640Y022465D01*
X007707Y022303D01*
X007831Y022179D01*
X007992Y022112D01*
X008168Y022112D01*
X008329Y022179D01*
X008453Y022303D01*
X008520Y022465D01*
X008520Y022640D01*
X008453Y022802D01*
X008329Y022925D01*
X008168Y022992D01*
X007992Y022992D01*
X007936Y022969D01*
X010279Y025312D01*
X012581Y025312D01*
X013769Y024124D01*
X013747Y024102D01*
X013680Y023940D01*
X013680Y023765D01*
X013747Y023603D01*
X013871Y023479D01*
X014032Y023412D01*
X014728Y023412D01*
X014889Y023479D01*
X015013Y023603D01*
X015080Y023765D01*
X015080Y023940D01*
X015013Y024102D01*
X014889Y024225D01*
X014728Y024292D01*
X014279Y024292D01*
X014159Y024412D01*
X014728Y024412D01*
X014889Y024479D01*
X015013Y024603D01*
X015080Y024765D01*
X015080Y024940D01*
X015013Y025102D01*
X014889Y025225D01*
X014728Y025292D01*
X014032Y025292D01*
X013871Y025225D01*
X013747Y025102D01*
X013680Y024940D01*
X013680Y024892D01*
X012883Y025688D01*
X012816Y025756D01*
X012728Y025792D01*
X010132Y025792D01*
X010044Y025756D01*
X007481Y023192D01*
X002218Y023192D01*
X002192Y023219D01*
X002110Y023252D01*
X002192Y023286D01*
X002346Y023441D01*
X002430Y023643D01*
X002430Y023862D01*
X002346Y024064D01*
X002192Y024219D01*
X002110Y024252D01*
X002192Y024286D01*
X002346Y024441D01*
X002430Y024643D01*
X002430Y024862D01*
X002346Y025064D01*
X002192Y025219D01*
X002110Y025252D01*
X002192Y025286D01*
X002346Y025441D01*
X002430Y025643D01*
X002430Y025862D01*
X002346Y026064D01*
X002192Y026219D01*
X002110Y026252D01*
X002192Y026286D01*
X002346Y026441D01*
X002430Y026643D01*
X002430Y026862D01*
X002346Y027064D01*
X002192Y027219D01*
X002110Y027252D01*
X002192Y027286D01*
X002346Y027441D01*
X002430Y027643D01*
X002430Y027862D01*
X002346Y028064D01*
X002192Y028219D01*
X002062Y028272D01*
X005975Y028272D01*
X006152Y028345D01*
X007079Y029272D01*
X019681Y029272D01*
X020473Y028480D01*
X020608Y028345D01*
X020741Y028290D01*
X020568Y028219D01*
X020414Y028064D01*
X020330Y027862D01*
X020330Y027643D01*
X020360Y027571D01*
X015881Y023092D01*
X015017Y023092D01*
X015013Y023102D01*
X014889Y023225D01*
X014728Y023292D01*
X014032Y023292D01*
X013871Y023225D01*
X013747Y023102D01*
X013680Y022940D01*
X013680Y022765D01*
X013747Y022603D01*
X013871Y022479D01*
X014032Y022412D01*
X014728Y022412D01*
X014889Y022479D01*
X015013Y022603D01*
X015017Y022612D01*
X016028Y022612D01*
X016116Y022649D01*
X016183Y022716D01*
X020331Y026864D01*
X020330Y026862D01*
X020330Y026643D01*
X020414Y026441D01*
X020568Y026286D01*
X020650Y026252D01*
X020568Y026219D01*
X020414Y026064D01*
X020330Y025862D01*
X020330Y025643D01*
X020414Y025441D01*
X020568Y025286D01*
X020650Y025252D01*
X020568Y025219D01*
X020414Y025064D01*
X020330Y024862D01*
X020330Y024643D01*
X020414Y024441D01*
X020568Y024286D01*
X020650Y024252D01*
X020568Y024219D01*
X020414Y024064D01*
X020330Y023862D01*
X020330Y023643D01*
X020414Y023441D01*
X020568Y023286D01*
X020650Y023252D01*
X020568Y023219D01*
X020414Y023064D01*
X020330Y022862D01*
X020330Y022643D01*
X020414Y022441D01*
X020568Y022286D01*
X020771Y022202D01*
X020989Y022202D01*
X021192Y022286D01*
X021346Y022441D01*
X021400Y022571D01*
X021400Y020934D01*
X021346Y021064D01*
X021192Y021219D01*
X020989Y021302D01*
X020771Y021302D01*
X020568Y021219D01*
X020414Y021064D01*
X020330Y020862D01*
X020330Y020643D01*
X020414Y020441D01*
X020568Y020286D01*
X020650Y020252D01*
X020592Y020223D01*
X020522Y020172D01*
X020460Y020111D01*
X020410Y020041D01*
X020370Y019963D01*
X020344Y019881D01*
X020330Y019796D01*
X020330Y019772D01*
X020860Y019772D01*
X020860Y019732D01*
X020330Y019732D01*
X020330Y019709D01*
X020344Y019624D01*
X020370Y019541D01*
X020410Y019464D01*
X020460Y019394D01*
X020522Y019333D01*
X020592Y019282D01*
X020650Y019252D01*
X020568Y019219D01*
X020414Y019064D01*
X020330Y018862D01*
X020330Y018643D01*
X020414Y018441D01*
X020568Y018286D01*
X020650Y018252D01*
X020568Y018219D01*
X020414Y018064D01*
X020330Y017862D01*
X020330Y017643D01*
X020414Y017441D01*
X020568Y017286D01*
X020650Y017252D01*
X020568Y017219D01*
X020414Y017064D01*
X020343Y016892D01*
X018832Y016892D01*
X018744Y016856D01*
X018677Y016788D01*
X018021Y016132D01*
X017904Y016132D01*
X017765Y016075D01*
X017755Y016065D01*
X017760Y016077D01*
X017760Y016228D01*
X017702Y016368D01*
X017595Y016475D01*
X017456Y016532D01*
X017304Y016532D01*
X017165Y016475D01*
X017058Y016368D01*
X017000Y016228D01*
X017000Y016077D01*
X017058Y015937D01*
X017140Y015855D01*
X017140Y015752D01*
X016421Y015032D01*
X016304Y015032D01*
X016165Y014975D01*
X016058Y014868D01*
X016000Y014728D01*
X016000Y014577D01*
X016035Y014492D01*
X011179Y014492D01*
X009660Y016012D01*
X009660Y016128D01*
X009602Y016268D01*
X009495Y016375D01*
X009356Y016432D01*
X009204Y016432D01*
X009065Y016375D01*
X008958Y016268D01*
X008900Y016128D01*
X008900Y015977D01*
X008958Y015837D01*
X009065Y015730D01*
X009204Y015672D01*
X009321Y015672D01*
X010877Y014116D01*
X010944Y014049D01*
X011032Y014012D01*
X016476Y014012D01*
X016519Y014011D01*
X016523Y014012D01*
X016528Y014012D01*
X016568Y014029D01*
X016609Y014044D01*
X016612Y014047D01*
X016616Y014049D01*
X016647Y014080D01*
X018032Y015372D01*
X018056Y015372D01*
X018195Y015430D01*
X018302Y015537D01*
X018360Y015677D01*
X018360Y015793D01*
X018979Y016412D01*
X020442Y016412D01*
X020568Y016286D01*
X020650Y016252D01*
X020568Y016219D01*
X020414Y016064D01*
X020330Y015862D01*
X020330Y015643D01*
X020414Y015441D01*
X020568Y015286D01*
X020650Y015252D01*
X020568Y015219D01*
X020414Y015064D01*
X020330Y014862D01*
X020330Y014643D01*
X020414Y014441D01*
X020568Y014286D01*
X020650Y014252D01*
X020568Y014219D01*
X020414Y014064D01*
X020330Y013862D01*
X020330Y013643D01*
X020414Y013441D01*
X020568Y013286D01*
X020771Y013202D01*
X020989Y013202D01*
X021192Y013286D01*
X021346Y013441D01*
X021400Y013571D01*
X021400Y007451D01*
X020681Y006732D01*
X002079Y006732D01*
X001925Y006886D02*
X020835Y006886D01*
X020994Y007045D02*
X001766Y007045D01*
X001608Y007203D02*
X021152Y007203D01*
X021311Y007362D02*
X012057Y007362D01*
X012010Y007342D02*
X012234Y007435D01*
X012406Y007607D01*
X012499Y007831D01*
X012499Y008074D01*
X012406Y008298D01*
X012234Y008469D01*
X012010Y008562D01*
X011767Y008562D01*
X011543Y008469D01*
X011372Y008298D01*
X011279Y008074D01*
X011279Y007831D01*
X011372Y007607D01*
X011543Y007435D01*
X011767Y007342D01*
X012010Y007342D01*
X012319Y007520D02*
X015701Y007520D01*
X015665Y007535D02*
X015889Y007442D01*
X016132Y007442D01*
X016356Y007535D01*
X016528Y007707D01*
X016621Y007931D01*
X016621Y008174D01*
X016528Y008398D01*
X016356Y008569D01*
X016132Y008662D01*
X015889Y008662D01*
X015665Y008569D01*
X015494Y008398D01*
X015401Y008174D01*
X015401Y007931D01*
X015494Y007707D01*
X015665Y007535D01*
X015522Y007679D02*
X012436Y007679D01*
X012499Y007837D02*
X015440Y007837D01*
X015401Y007996D02*
X012499Y007996D01*
X012465Y008154D02*
X015401Y008154D01*
X015458Y008313D02*
X012391Y008313D01*
X012230Y008471D02*
X015567Y008471D01*
X015811Y008630D02*
X001360Y008630D01*
X001360Y008788D02*
X021400Y008788D01*
X021400Y008630D02*
X017588Y008630D01*
X017510Y008662D02*
X017267Y008662D01*
X017043Y008569D01*
X016872Y008398D01*
X016779Y008174D01*
X016779Y007931D01*
X016872Y007707D01*
X017043Y007535D01*
X017267Y007442D01*
X017510Y007442D01*
X017734Y007535D01*
X017906Y007707D01*
X017999Y007931D01*
X017999Y008174D01*
X017906Y008398D01*
X017734Y008569D01*
X017510Y008662D01*
X017189Y008630D02*
X016210Y008630D01*
X016454Y008471D02*
X016945Y008471D01*
X016836Y008313D02*
X016563Y008313D01*
X016621Y008154D02*
X016779Y008154D01*
X016779Y007996D02*
X016621Y007996D01*
X016582Y007837D02*
X016817Y007837D01*
X016899Y007679D02*
X016500Y007679D01*
X016320Y007520D02*
X017079Y007520D01*
X017698Y007520D02*
X021400Y007520D01*
X021400Y007679D02*
X017878Y007679D01*
X017960Y007837D02*
X021400Y007837D01*
X021400Y007996D02*
X017999Y007996D01*
X017999Y008154D02*
X021400Y008154D01*
X021400Y008313D02*
X017941Y008313D01*
X017832Y008471D02*
X021400Y008471D01*
X021400Y008947D02*
X001360Y008947D01*
X001360Y009105D02*
X021400Y009105D01*
X021400Y009264D02*
X001360Y009264D01*
X001360Y009422D02*
X021400Y009422D01*
X021400Y009581D02*
X001360Y009581D01*
X001360Y009739D02*
X001681Y009739D01*
X001457Y009898D02*
X001360Y009898D01*
X001360Y010056D02*
X001366Y010056D01*
X002079Y009739D02*
X021400Y009739D01*
X021400Y009898D02*
X002303Y009898D01*
X002394Y010056D02*
X021400Y010056D01*
X021400Y010215D02*
X002430Y010215D01*
X002425Y010373D02*
X021400Y010373D01*
X021400Y010532D02*
X002360Y010532D01*
X002220Y010690D02*
X021400Y010690D01*
X021400Y010849D02*
X002254Y010849D01*
X002374Y011007D02*
X004086Y011007D01*
X004144Y010949D02*
X004232Y010912D01*
X007737Y010912D01*
X007742Y010911D01*
X007785Y010912D01*
X007828Y010912D01*
X007832Y010914D01*
X007837Y010914D01*
X007876Y010932D01*
X007916Y010949D01*
X007919Y010952D01*
X007924Y010954D01*
X007953Y010986D01*
X007983Y011016D01*
X007985Y011021D01*
X009084Y012211D01*
X009165Y012130D01*
X009304Y012072D01*
X009421Y012072D01*
X009544Y011949D01*
X009632Y011912D01*
X011056Y011912D01*
X011080Y011908D01*
X011104Y011912D01*
X011128Y011912D01*
X011150Y011922D01*
X011174Y011926D01*
X011194Y011940D01*
X011216Y011949D01*
X011233Y011966D01*
X011253Y011980D01*
X011267Y011999D01*
X011283Y012016D01*
X011293Y012039D01*
X011408Y012212D01*
X013627Y012212D01*
X013658Y012137D01*
X013765Y012030D01*
X013904Y011972D01*
X014056Y011972D01*
X014195Y012030D01*
X014302Y012137D01*
X014360Y012277D01*
X014360Y012428D01*
X014302Y012568D01*
X014195Y012675D01*
X014056Y012732D01*
X013904Y012732D01*
X013808Y012692D01*
X011304Y012692D01*
X011280Y012697D01*
X011256Y012692D01*
X011232Y012692D01*
X011210Y012683D01*
X011186Y012678D01*
X011166Y012665D01*
X011144Y012656D01*
X011127Y012639D01*
X011107Y012625D01*
X011093Y012605D01*
X011077Y012588D01*
X011067Y012566D01*
X010952Y012392D01*
X009779Y012392D01*
X009760Y012412D01*
X009760Y012528D01*
X009702Y012668D01*
X009595Y012775D01*
X009456Y012832D01*
X009304Y012832D01*
X009165Y012775D01*
X009083Y012692D01*
X009023Y012692D01*
X009018Y012694D01*
X008975Y012692D01*
X008932Y012692D01*
X008928Y012690D01*
X008923Y012690D01*
X008884Y012672D01*
X008844Y012656D01*
X008841Y012652D01*
X008836Y012650D01*
X008807Y012619D01*
X008777Y012588D01*
X008775Y012584D01*
X007675Y011392D01*
X004379Y011392D01*
X004060Y011712D01*
X004060Y011828D01*
X004002Y011968D01*
X003895Y012075D01*
X003756Y012132D01*
X003604Y012132D01*
X003465Y012075D01*
X003358Y011968D01*
X003300Y011828D01*
X003300Y011677D01*
X003358Y011537D01*
X003465Y011430D01*
X003604Y011372D01*
X003721Y011372D01*
X004144Y010949D01*
X003927Y011166D02*
X002430Y011166D01*
X002430Y011324D02*
X003769Y011324D01*
X003412Y011483D02*
X002380Y011483D01*
X002269Y011641D02*
X003315Y011641D01*
X003300Y011800D02*
X002205Y011800D01*
X002354Y011958D02*
X003354Y011958D01*
X003567Y012117D02*
X002419Y012117D01*
X002430Y012275D02*
X008490Y012275D01*
X008344Y012117D02*
X003793Y012117D01*
X004006Y011958D02*
X008197Y011958D01*
X008051Y011800D02*
X004060Y011800D01*
X004130Y011641D02*
X007905Y011641D01*
X007758Y011483D02*
X004289Y011483D01*
X005204Y013772D02*
X005065Y013830D01*
X004958Y013937D01*
X004900Y014077D01*
X004900Y014228D01*
X004958Y014368D01*
X005065Y014475D01*
X005204Y014532D01*
X005356Y014532D01*
X005495Y014475D01*
X005577Y014392D01*
X006083Y014392D01*
X006165Y014475D01*
X006304Y014532D01*
X006456Y014532D01*
X006595Y014475D01*
X006702Y014368D01*
X006760Y014228D01*
X006760Y014077D01*
X006702Y013937D01*
X006595Y013830D01*
X006456Y013772D01*
X006304Y013772D01*
X006165Y013830D01*
X006083Y013912D01*
X005577Y013912D01*
X005495Y013830D01*
X005356Y013772D01*
X005204Y013772D01*
X005035Y013860D02*
X002266Y013860D01*
X002197Y013702D02*
X016800Y013702D01*
X016800Y013677D02*
X016858Y013537D01*
X016965Y013430D01*
X017104Y013372D01*
X017256Y013372D01*
X017395Y013430D01*
X017502Y013537D01*
X017560Y013677D01*
X017560Y013793D01*
X017739Y013972D01*
X017856Y013972D01*
X017995Y014030D01*
X018102Y014137D01*
X018160Y014277D01*
X018160Y014428D01*
X018102Y014568D01*
X017995Y014675D01*
X017856Y014732D01*
X017704Y014732D01*
X017565Y014675D01*
X017458Y014568D01*
X017400Y014428D01*
X017400Y014312D01*
X017221Y014132D01*
X017104Y014132D01*
X016965Y014075D01*
X016858Y013968D01*
X016800Y013828D01*
X016800Y013677D01*
X016855Y013543D02*
X002348Y013543D01*
X002415Y013385D02*
X017074Y013385D01*
X017286Y013385D02*
X020470Y013385D01*
X020371Y013543D02*
X017505Y013543D01*
X017560Y013702D02*
X020330Y013702D01*
X020330Y013860D02*
X017627Y013860D01*
X017968Y014019D02*
X020395Y014019D01*
X020527Y014177D02*
X018119Y014177D01*
X018160Y014336D02*
X020519Y014336D01*
X020392Y014494D02*
X018132Y014494D01*
X018017Y014653D02*
X020330Y014653D01*
X020330Y014811D02*
X017431Y014811D01*
X017543Y014653D02*
X017261Y014653D01*
X017428Y014494D02*
X017091Y014494D01*
X016921Y014336D02*
X017400Y014336D01*
X017266Y014177D02*
X016751Y014177D01*
X016909Y014019D02*
X016543Y014019D01*
X016813Y013860D02*
X006625Y013860D01*
X006736Y014019D02*
X011017Y014019D01*
X010816Y014177D02*
X006760Y014177D01*
X006715Y014336D02*
X010657Y014336D01*
X010499Y014494D02*
X006547Y014494D01*
X006213Y014494D02*
X005447Y014494D01*
X005113Y014494D02*
X002375Y014494D01*
X002430Y014336D02*
X004945Y014336D01*
X004900Y014177D02*
X002430Y014177D01*
X002379Y014019D02*
X004924Y014019D01*
X005525Y013860D02*
X006135Y013860D01*
X008265Y011324D02*
X021400Y011324D01*
X021400Y011166D02*
X008119Y011166D01*
X007974Y011007D02*
X021400Y011007D01*
X021400Y011483D02*
X008412Y011483D01*
X008558Y011641D02*
X021400Y011641D01*
X021400Y011800D02*
X008704Y011800D01*
X008851Y011958D02*
X009535Y011958D01*
X009760Y012434D02*
X010979Y012434D01*
X011081Y012592D02*
X009733Y012592D01*
X009619Y012751D02*
X021400Y012751D01*
X021400Y012909D02*
X002311Y012909D01*
X002398Y013068D02*
X021400Y013068D01*
X021400Y013226D02*
X021047Y013226D01*
X021290Y013385D02*
X021400Y013385D01*
X021389Y013543D02*
X021400Y013543D01*
X020713Y013226D02*
X002430Y013226D01*
X002114Y012751D02*
X009141Y012751D01*
X008781Y012592D02*
X002318Y012592D01*
X002400Y012434D02*
X008636Y012434D01*
X008997Y012117D02*
X009197Y012117D01*
X010340Y014653D02*
X002257Y014653D01*
X002217Y014811D02*
X010182Y014811D01*
X010023Y014970D02*
X002358Y014970D01*
X002424Y015128D02*
X009865Y015128D01*
X009706Y015287D02*
X002430Y015287D01*
X002395Y015445D02*
X009548Y015445D01*
X009389Y015604D02*
X002306Y015604D01*
X002134Y015762D02*
X009033Y015762D01*
X008923Y015921D02*
X002326Y015921D01*
X002404Y016079D02*
X008900Y016079D01*
X008946Y016238D02*
X002430Y016238D01*
X002416Y016396D02*
X009118Y016396D01*
X009442Y016396D02*
X012085Y016396D01*
X012243Y016555D02*
X002350Y016555D01*
X002197Y016713D02*
X012402Y016713D01*
X012560Y016872D02*
X002277Y016872D01*
X002383Y017030D02*
X012065Y017030D01*
X011936Y017189D02*
X002430Y017189D01*
X002430Y017347D02*
X011900Y017347D01*
X011787Y017506D02*
X002370Y017506D01*
X002246Y017664D02*
X011629Y017664D01*
X011470Y017823D02*
X002228Y017823D01*
X002363Y017981D02*
X011312Y017981D01*
X011673Y018298D02*
X020556Y018298D01*
X020490Y018140D02*
X011832Y018140D01*
X011990Y017981D02*
X020380Y017981D01*
X020330Y017823D02*
X012149Y017823D01*
X012505Y017664D02*
X020330Y017664D01*
X020387Y017506D02*
X013320Y017506D01*
X013256Y017532D02*
X013395Y017475D01*
X013502Y017368D01*
X013560Y017228D01*
X013560Y017077D01*
X013502Y016937D01*
X013395Y016830D01*
X013256Y016772D01*
X013139Y016772D01*
X012160Y015793D01*
X012160Y015677D01*
X012142Y015632D01*
X012221Y015632D01*
X012600Y016012D01*
X012600Y016128D01*
X012658Y016268D01*
X012765Y016375D01*
X012904Y016432D01*
X013056Y016432D01*
X013195Y016375D01*
X013302Y016268D01*
X013360Y016128D01*
X013360Y016012D01*
X013379Y015992D01*
X013583Y015992D01*
X013665Y016075D01*
X013804Y016132D01*
X013956Y016132D01*
X014095Y016075D01*
X014202Y015968D01*
X014260Y015828D01*
X014260Y015677D01*
X014202Y015537D01*
X014095Y015430D01*
X013956Y015372D01*
X013804Y015372D01*
X013665Y015430D01*
X013583Y015512D01*
X013232Y015512D01*
X013144Y015549D01*
X013077Y015616D01*
X013021Y015672D01*
X012939Y015672D01*
X012560Y015293D01*
X012560Y015177D01*
X012502Y015037D01*
X012395Y014930D01*
X012256Y014872D01*
X012104Y014872D01*
X011965Y014930D01*
X011858Y015037D01*
X011800Y015177D01*
X011800Y015328D01*
X011818Y015372D01*
X011704Y015372D01*
X011565Y015430D01*
X011458Y015537D01*
X011400Y015677D01*
X011400Y015828D01*
X011458Y015968D01*
X011565Y016075D01*
X011704Y016132D01*
X011821Y016132D01*
X012800Y017112D01*
X012800Y017228D01*
X012858Y017368D01*
X012965Y017475D01*
X013104Y017532D01*
X013256Y017532D01*
X013040Y017506D02*
X012628Y017506D01*
X012660Y017347D02*
X012849Y017347D01*
X012800Y017189D02*
X012624Y017189D01*
X012719Y017030D02*
X012495Y017030D01*
X012922Y016555D02*
X018443Y016555D01*
X018602Y016713D02*
X013080Y016713D01*
X013142Y016396D02*
X017087Y016396D01*
X017004Y016238D02*
X013314Y016238D01*
X013360Y016079D02*
X013676Y016079D01*
X014084Y016079D02*
X017000Y016079D01*
X017074Y015921D02*
X014222Y015921D01*
X014260Y015762D02*
X017140Y015762D01*
X016992Y015604D02*
X014230Y015604D01*
X014110Y015445D02*
X016834Y015445D01*
X016675Y015287D02*
X012560Y015287D01*
X012540Y015128D02*
X016517Y015128D01*
X016160Y014970D02*
X012435Y014970D01*
X012712Y015445D02*
X013650Y015445D01*
X013089Y015604D02*
X012871Y015604D01*
X012509Y015921D02*
X012288Y015921D01*
X012351Y015762D02*
X012160Y015762D01*
X011800Y015287D02*
X010385Y015287D01*
X010226Y015445D02*
X011550Y015445D01*
X011430Y015604D02*
X010068Y015604D01*
X009909Y015762D02*
X011400Y015762D01*
X011438Y015921D02*
X009751Y015921D01*
X009660Y016079D02*
X011576Y016079D01*
X011926Y016238D02*
X009614Y016238D01*
X010543Y015128D02*
X011820Y015128D01*
X011925Y014970D02*
X010702Y014970D01*
X010860Y014811D02*
X016035Y014811D01*
X016000Y014653D02*
X011019Y014653D01*
X011177Y014494D02*
X016034Y014494D01*
X017601Y014970D02*
X020375Y014970D01*
X020478Y015128D02*
X017770Y015128D01*
X017940Y015287D02*
X020568Y015287D01*
X020412Y015445D02*
X018210Y015445D01*
X018330Y015604D02*
X020346Y015604D01*
X020330Y015762D02*
X018360Y015762D01*
X018488Y015921D02*
X020354Y015921D01*
X020429Y016079D02*
X018646Y016079D01*
X018805Y016238D02*
X020615Y016238D01*
X020458Y016396D02*
X018963Y016396D01*
X018783Y016872D02*
X013437Y016872D01*
X013541Y017030D02*
X020400Y017030D01*
X020539Y017189D02*
X013560Y017189D01*
X013511Y017347D02*
X020507Y017347D01*
X020407Y018457D02*
X011515Y018457D01*
X011356Y018615D02*
X020341Y018615D01*
X020330Y018774D02*
X011198Y018774D01*
X011039Y018932D02*
X020359Y018932D01*
X020441Y019091D02*
X010881Y019091D01*
X010722Y019249D02*
X020643Y019249D01*
X020450Y019408D02*
X010564Y019408D01*
X010405Y019566D02*
X020362Y019566D01*
X020330Y019725D02*
X010247Y019725D01*
X010088Y019883D02*
X020344Y019883D01*
X020411Y020042D02*
X009930Y020042D01*
X009771Y020200D02*
X020561Y020200D01*
X020496Y020359D02*
X009613Y020359D01*
X009454Y020517D02*
X020382Y020517D01*
X020330Y020676D02*
X009296Y020676D01*
X009137Y020834D02*
X020330Y020834D01*
X020384Y020993D02*
X008979Y020993D01*
X008681Y020612D02*
X003859Y020612D01*
X005539Y018932D01*
X005381Y019091D02*
X010202Y019091D01*
X010044Y019249D02*
X005222Y019249D01*
X005064Y019408D02*
X009885Y019408D01*
X009727Y019566D02*
X004905Y019566D01*
X004747Y019725D02*
X009568Y019725D01*
X009410Y019883D02*
X004588Y019883D01*
X004430Y020042D02*
X009251Y020042D01*
X009093Y020200D02*
X004271Y020200D01*
X004113Y020359D02*
X008934Y020359D01*
X008329Y021179D02*
X008453Y021303D01*
X008520Y021465D01*
X008520Y021640D01*
X008453Y021802D01*
X008329Y021925D01*
X008168Y021992D01*
X007992Y021992D01*
X007831Y021925D01*
X007707Y021802D01*
X007640Y021640D01*
X007640Y021465D01*
X007707Y021303D01*
X007831Y021179D01*
X007992Y021112D01*
X008168Y021112D01*
X008329Y021179D01*
X008262Y021151D02*
X020501Y021151D01*
X020629Y022261D02*
X014804Y022261D01*
X014728Y022292D02*
X014889Y022225D01*
X015013Y022102D01*
X015080Y021940D01*
X015080Y021765D01*
X015013Y021603D01*
X014889Y021479D01*
X014728Y021412D01*
X014032Y021412D01*
X013871Y021479D01*
X013747Y021603D01*
X013680Y021765D01*
X013680Y021940D01*
X013747Y022102D01*
X013871Y022225D01*
X014032Y022292D01*
X014728Y022292D01*
X014744Y022419D02*
X020435Y022419D01*
X020357Y022578D02*
X014988Y022578D01*
X015012Y022102D02*
X021400Y022102D01*
X021400Y021944D02*
X015078Y021944D01*
X015080Y021785D02*
X021400Y021785D01*
X021400Y021627D02*
X015023Y021627D01*
X014863Y021468D02*
X021400Y021468D01*
X021400Y021310D02*
X008456Y021310D01*
X008520Y021468D02*
X010904Y021468D01*
X010889Y021476D02*
X010951Y021445D01*
X011017Y021423D01*
X011085Y021412D01*
X011380Y021412D01*
X011675Y021412D01*
X011743Y021423D01*
X011809Y021445D01*
X011871Y021476D01*
X011927Y021517D01*
X011976Y021566D01*
X012016Y021622D01*
X012048Y021683D01*
X012069Y021749D01*
X012080Y021818D01*
X012080Y021852D01*
X011380Y021852D01*
X011380Y021412D01*
X011380Y021852D01*
X011380Y021852D01*
X010680Y021852D01*
X010680Y021818D01*
X010691Y021749D01*
X010712Y021683D01*
X010744Y021622D01*
X010784Y021566D01*
X010833Y021517D01*
X010889Y021476D01*
X010741Y021627D02*
X008520Y021627D01*
X008460Y021785D02*
X010685Y021785D01*
X010680Y021852D02*
X011380Y021852D01*
X011380Y021852D01*
X011380Y021852D01*
X012080Y021852D01*
X012080Y021887D01*
X012069Y021955D01*
X012048Y022021D01*
X012016Y022083D01*
X011976Y022139D01*
X011927Y022188D01*
X011871Y022229D01*
X011809Y022260D01*
X011743Y022282D01*
X011675Y022292D01*
X011380Y022292D01*
X011085Y022292D01*
X011017Y022282D01*
X010951Y022260D01*
X010889Y022229D01*
X010833Y022188D01*
X010784Y022139D01*
X010744Y022083D01*
X010712Y022021D01*
X010691Y021955D01*
X010680Y021887D01*
X010680Y021852D01*
X010689Y021944D02*
X008285Y021944D01*
X008411Y022261D02*
X010953Y022261D01*
X011016Y022419D02*
X008501Y022419D01*
X008520Y022578D02*
X010772Y022578D01*
X010747Y022603D02*
X010871Y022479D01*
X011032Y022412D01*
X011728Y022412D01*
X011889Y022479D01*
X012013Y022603D01*
X012080Y022765D01*
X012080Y022940D01*
X012013Y023102D01*
X011889Y023225D01*
X011728Y023292D01*
X011032Y023292D01*
X010871Y023225D01*
X010747Y023102D01*
X010680Y022940D01*
X010680Y022765D01*
X010747Y022603D01*
X010692Y022736D02*
X008480Y022736D01*
X008360Y022895D02*
X010680Y022895D01*
X010727Y023053D02*
X008020Y023053D01*
X008179Y023212D02*
X010857Y023212D01*
X011032Y023412D02*
X011728Y023412D01*
X011889Y023479D01*
X012013Y023603D01*
X012080Y023765D01*
X012080Y023940D01*
X012013Y024102D01*
X011889Y024225D01*
X011728Y024292D01*
X011032Y024292D01*
X010871Y024225D01*
X010747Y024102D01*
X010680Y023940D01*
X010680Y023765D01*
X010747Y023603D01*
X010871Y023479D01*
X011032Y023412D01*
X010821Y023529D02*
X008496Y023529D01*
X008654Y023687D02*
X010712Y023687D01*
X010680Y023846D02*
X008813Y023846D01*
X008971Y024004D02*
X010707Y024004D01*
X010808Y024163D02*
X009130Y024163D01*
X009288Y024321D02*
X013572Y024321D01*
X013730Y024163D02*
X011952Y024163D01*
X012053Y024004D02*
X013707Y024004D01*
X013680Y023846D02*
X012080Y023846D01*
X012048Y023687D02*
X013712Y023687D01*
X013821Y023529D02*
X011939Y023529D01*
X011903Y023212D02*
X013857Y023212D01*
X013727Y023053D02*
X012033Y023053D01*
X012080Y022895D02*
X013680Y022895D01*
X013692Y022736D02*
X012068Y022736D01*
X011988Y022578D02*
X013772Y022578D01*
X014016Y022419D02*
X011744Y022419D01*
X011807Y022261D02*
X013956Y022261D01*
X013748Y022102D02*
X012002Y022102D01*
X012071Y021944D02*
X013682Y021944D01*
X013680Y021785D02*
X012075Y021785D01*
X012019Y021627D02*
X013737Y021627D01*
X013897Y021468D02*
X011856Y021468D01*
X011380Y021468D02*
X011380Y021468D01*
X011380Y021627D02*
X011380Y021627D01*
X011380Y021785D02*
X011380Y021785D01*
X011380Y021852D02*
X011380Y022292D01*
X011380Y021852D01*
X011380Y021852D01*
X011380Y021944D02*
X011380Y021944D01*
X011380Y022102D02*
X011380Y022102D01*
X011380Y022261D02*
X011380Y022261D01*
X010758Y022102D02*
X002308Y022102D01*
X002396Y021944D02*
X007875Y021944D01*
X007700Y021785D02*
X002486Y021785D01*
X002645Y021627D02*
X007640Y021627D01*
X007640Y021468D02*
X002803Y021468D01*
X002962Y021310D02*
X007704Y021310D01*
X007898Y021151D02*
X003120Y021151D01*
X002131Y022261D02*
X007749Y022261D01*
X007659Y022419D02*
X002325Y022419D01*
X002403Y022578D02*
X007640Y022578D01*
X007500Y023212D02*
X002198Y023212D01*
X002276Y023370D02*
X007659Y023370D01*
X007817Y023529D02*
X002383Y023529D01*
X002430Y023687D02*
X007976Y023687D01*
X008134Y023846D02*
X002430Y023846D01*
X002371Y024004D02*
X008293Y024004D01*
X008451Y024163D02*
X002247Y024163D01*
X002227Y024321D02*
X008610Y024321D01*
X008768Y024480D02*
X002362Y024480D01*
X002428Y024638D02*
X008927Y024638D01*
X009085Y024797D02*
X007101Y024797D01*
X007084Y024792D02*
X007129Y024805D01*
X007171Y024828D01*
X007204Y024862D01*
X007228Y024903D01*
X007240Y024949D01*
X007240Y025752D01*
X006280Y025752D01*
X006280Y024792D01*
X006280Y025752D01*
X006280Y025752D01*
X006280Y025752D01*
X005320Y025752D01*
X005320Y024949D01*
X005332Y024903D01*
X005356Y024862D01*
X005389Y024828D01*
X005431Y024805D01*
X005476Y024792D01*
X006280Y024792D01*
X007084Y024792D01*
X007240Y024955D02*
X008700Y024955D01*
X008720Y024947D02*
X009040Y024947D01*
X009336Y025070D01*
X009562Y025296D01*
X009685Y025592D01*
X009685Y025912D01*
X009562Y026208D01*
X009336Y026435D01*
X009040Y026557D01*
X008720Y026557D01*
X008424Y026435D01*
X008198Y026208D01*
X008075Y025912D01*
X008075Y025592D01*
X008198Y025296D01*
X008424Y025070D01*
X008720Y024947D01*
X008380Y025114D02*
X007240Y025114D01*
X007240Y025272D02*
X008222Y025272D01*
X008142Y025431D02*
X007240Y025431D01*
X007240Y025589D02*
X008076Y025589D01*
X008075Y025748D02*
X007240Y025748D01*
X007240Y025752D02*
X007240Y026556D01*
X007228Y026602D01*
X007204Y026643D01*
X007171Y026676D01*
X007129Y026700D01*
X007084Y026712D01*
X006280Y026712D01*
X005476Y026712D01*
X005431Y026700D01*
X005389Y026676D01*
X005356Y026643D01*
X005332Y026602D01*
X005320Y026556D01*
X005320Y025752D01*
X006280Y025752D01*
X006280Y025752D01*
X007240Y025752D01*
X007240Y025906D02*
X008075Y025906D01*
X008138Y026065D02*
X007240Y026065D01*
X007240Y026223D02*
X008213Y026223D01*
X008371Y026382D02*
X007240Y026382D01*
X007240Y026540D02*
X008679Y026540D01*
X009081Y026540D02*
X019329Y026540D01*
X019170Y026382D02*
X009389Y026382D01*
X009547Y026223D02*
X019012Y026223D01*
X018853Y026065D02*
X009622Y026065D01*
X009685Y025906D02*
X018695Y025906D01*
X018536Y025748D02*
X012824Y025748D01*
X012982Y025589D02*
X018378Y025589D01*
X018219Y025431D02*
X013141Y025431D01*
X013299Y025272D02*
X013984Y025272D01*
X013759Y025114D02*
X013458Y025114D01*
X013616Y024955D02*
X013686Y024955D01*
X013413Y024480D02*
X011890Y024480D01*
X011889Y024479D02*
X012013Y024603D01*
X012080Y024765D01*
X012080Y024940D01*
X012013Y025102D01*
X011889Y025225D01*
X011728Y025292D01*
X011032Y025292D01*
X010871Y025225D01*
X010747Y025102D01*
X010680Y024940D01*
X010680Y024765D01*
X010747Y024603D01*
X010871Y024479D01*
X011032Y024412D01*
X011728Y024412D01*
X011889Y024479D01*
X012028Y024638D02*
X013255Y024638D01*
X013096Y024797D02*
X012080Y024797D01*
X012074Y024955D02*
X012938Y024955D01*
X012779Y025114D02*
X012001Y025114D01*
X011776Y025272D02*
X012621Y025272D01*
X010984Y025272D02*
X010239Y025272D01*
X010081Y025114D02*
X010759Y025114D01*
X010686Y024955D02*
X009922Y024955D01*
X009764Y024797D02*
X010680Y024797D01*
X010732Y024638D02*
X009605Y024638D01*
X009447Y024480D02*
X010870Y024480D01*
X010036Y025748D02*
X009685Y025748D01*
X009684Y025589D02*
X009878Y025589D01*
X009719Y025431D02*
X009618Y025431D01*
X009561Y025272D02*
X009538Y025272D01*
X009402Y025114D02*
X009380Y025114D01*
X009244Y024955D02*
X009060Y024955D01*
X008337Y023370D02*
X016159Y023370D01*
X016000Y023212D02*
X014903Y023212D01*
X014939Y023529D02*
X016317Y023529D01*
X016476Y023687D02*
X015048Y023687D01*
X015080Y023846D02*
X016634Y023846D01*
X016793Y024004D02*
X015053Y024004D01*
X014952Y024163D02*
X016951Y024163D01*
X017110Y024321D02*
X014250Y024321D01*
X014890Y024480D02*
X017268Y024480D01*
X017427Y024638D02*
X015028Y024638D01*
X015080Y024797D02*
X017585Y024797D01*
X017744Y024955D02*
X015074Y024955D01*
X015001Y025114D02*
X017902Y025114D01*
X018061Y025272D02*
X014776Y025272D01*
X016679Y023212D02*
X017170Y023212D01*
X017170Y023141D02*
X017170Y023352D01*
X017680Y023352D01*
X017680Y022842D01*
X017891Y022842D01*
X018180Y023131D01*
X018469Y022842D01*
X018891Y022842D01*
X019190Y023141D01*
X019190Y023564D01*
X018891Y023862D01*
X018469Y023862D01*
X018180Y023574D01*
X017891Y023862D01*
X017680Y023862D01*
X017469Y023862D01*
X017170Y023564D01*
X017170Y023352D01*
X017680Y023352D01*
X017680Y023352D01*
X017680Y022842D01*
X017469Y022842D01*
X017170Y023141D01*
X017258Y023053D02*
X016520Y023053D01*
X016362Y022895D02*
X017416Y022895D01*
X017680Y022895D02*
X017680Y022895D01*
X017680Y023053D02*
X017680Y023053D01*
X017680Y023212D02*
X017680Y023212D01*
X017680Y023352D02*
X017680Y023352D01*
X017680Y023862D01*
X017680Y023352D01*
X017680Y023352D01*
X017680Y023370D02*
X017680Y023370D01*
X017680Y023529D02*
X017680Y023529D01*
X017680Y023687D02*
X017680Y023687D01*
X017680Y023846D02*
X017680Y023846D01*
X017908Y023846D02*
X018452Y023846D01*
X018294Y023687D02*
X018066Y023687D01*
X018102Y023053D02*
X018258Y023053D01*
X018416Y022895D02*
X017944Y022895D01*
X017170Y023370D02*
X016837Y023370D01*
X016996Y023529D02*
X017170Y023529D01*
X017154Y023687D02*
X017294Y023687D01*
X017313Y023846D02*
X017452Y023846D01*
X017471Y024004D02*
X020389Y024004D01*
X020330Y023846D02*
X018908Y023846D01*
X019066Y023687D02*
X020330Y023687D01*
X020377Y023529D02*
X019190Y023529D01*
X019190Y023370D02*
X020484Y023370D01*
X020562Y023212D02*
X019190Y023212D01*
X019102Y023053D02*
X020409Y023053D01*
X020344Y022895D02*
X018944Y022895D01*
X017630Y024163D02*
X020513Y024163D01*
X020533Y024321D02*
X017788Y024321D01*
X017947Y024480D02*
X020398Y024480D01*
X020332Y024638D02*
X018105Y024638D01*
X018264Y024797D02*
X020330Y024797D01*
X020369Y024955D02*
X018422Y024955D01*
X018581Y025114D02*
X020464Y025114D01*
X020602Y025272D02*
X018739Y025272D01*
X018898Y025431D02*
X020424Y025431D01*
X020352Y025589D02*
X019056Y025589D01*
X019215Y025748D02*
X020330Y025748D01*
X020348Y025906D02*
X019373Y025906D01*
X019532Y026065D02*
X020415Y026065D01*
X020580Y026223D02*
X019690Y026223D01*
X019849Y026382D02*
X020473Y026382D01*
X020372Y026540D02*
X020007Y026540D01*
X020166Y026699D02*
X020330Y026699D01*
X020324Y026857D02*
X020330Y026857D01*
X019963Y027174D02*
X002236Y027174D01*
X002238Y027333D02*
X020121Y027333D01*
X020280Y027491D02*
X002367Y027491D01*
X002430Y027650D02*
X020330Y027650D01*
X020330Y027808D02*
X002430Y027808D01*
X002386Y027967D02*
X020374Y027967D01*
X020475Y028125D02*
X002285Y028125D01*
X002366Y027016D02*
X019804Y027016D01*
X019646Y026857D02*
X002430Y026857D01*
X002430Y026699D02*
X005428Y026699D01*
X005320Y026540D02*
X003881Y026540D01*
X003840Y026557D02*
X003520Y026557D01*
X003224Y026435D01*
X002998Y026208D01*
X002875Y025912D01*
X002875Y025592D01*
X002998Y025296D01*
X003224Y025070D01*
X003520Y024947D01*
X003840Y024947D01*
X004136Y025070D01*
X004362Y025296D01*
X004485Y025592D01*
X004485Y025912D01*
X004362Y026208D01*
X004136Y026435D01*
X003840Y026557D01*
X004189Y026382D02*
X005320Y026382D01*
X005320Y026223D02*
X004347Y026223D01*
X004422Y026065D02*
X005320Y026065D01*
X005320Y025906D02*
X004485Y025906D01*
X004485Y025748D02*
X005320Y025748D01*
X005320Y025589D02*
X004484Y025589D01*
X004418Y025431D02*
X005320Y025431D01*
X005320Y025272D02*
X004338Y025272D01*
X004180Y025114D02*
X005320Y025114D01*
X005320Y024955D02*
X003860Y024955D01*
X003500Y024955D02*
X002391Y024955D01*
X002430Y024797D02*
X005459Y024797D01*
X006280Y024797D02*
X006280Y024797D01*
X006280Y024955D02*
X006280Y024955D01*
X006280Y025114D02*
X006280Y025114D01*
X006280Y025272D02*
X006280Y025272D01*
X006280Y025431D02*
X006280Y025431D01*
X006280Y025589D02*
X006280Y025589D01*
X006280Y025748D02*
X006280Y025748D01*
X006280Y025752D02*
X006280Y026712D01*
X006280Y025752D01*
X006280Y025752D01*
X006280Y025906D02*
X006280Y025906D01*
X006280Y026065D02*
X006280Y026065D01*
X006280Y026223D02*
X006280Y026223D01*
X006280Y026382D02*
X006280Y026382D01*
X006280Y026540D02*
X006280Y026540D01*
X006280Y026699D02*
X006280Y026699D01*
X007132Y026699D02*
X019487Y026699D01*
X020726Y028284D02*
X006003Y028284D01*
X006249Y028442D02*
X020511Y028442D01*
X020353Y028601D02*
X006407Y028601D01*
X006566Y028759D02*
X020194Y028759D01*
X020036Y028918D02*
X006724Y028918D01*
X006883Y029076D02*
X019877Y029076D01*
X019719Y029235D02*
X007041Y029235D01*
X003479Y026540D02*
X002388Y026540D01*
X002287Y026382D02*
X003171Y026382D01*
X003013Y026223D02*
X002180Y026223D01*
X002345Y026065D02*
X002938Y026065D01*
X002875Y025906D02*
X002412Y025906D01*
X002430Y025748D02*
X002875Y025748D01*
X002876Y025589D02*
X002408Y025589D01*
X002336Y025431D02*
X002942Y025431D01*
X003022Y025272D02*
X002158Y025272D01*
X002296Y025114D02*
X003180Y025114D01*
X001382Y020517D02*
X001360Y020517D01*
X001360Y020359D02*
X001496Y020359D01*
X001416Y019566D02*
X001360Y019566D01*
X004889Y008562D02*
X004665Y008469D01*
X004494Y008298D01*
X004401Y008074D01*
X004401Y007831D01*
X004494Y007607D01*
X004665Y007435D01*
X004889Y007342D01*
X005132Y007342D01*
X005356Y007435D01*
X005528Y007607D01*
X005621Y007831D01*
X005621Y008074D01*
X005528Y008298D01*
X005356Y008469D01*
X005132Y008562D01*
X004889Y008562D01*
X004670Y008471D02*
X001360Y008471D01*
X001360Y008313D02*
X004509Y008313D01*
X004434Y008154D02*
X001360Y008154D01*
X001360Y007996D02*
X004401Y007996D01*
X004401Y007837D02*
X001360Y007837D01*
X001360Y007679D02*
X004464Y007679D01*
X004580Y007520D02*
X001360Y007520D01*
X001449Y007362D02*
X004842Y007362D01*
X005179Y007362D02*
X006220Y007362D01*
X006267Y007342D02*
X006510Y007342D01*
X006734Y007435D01*
X006906Y007607D01*
X006999Y007831D01*
X006999Y008074D01*
X006906Y008298D01*
X006734Y008469D01*
X006510Y008562D01*
X006267Y008562D01*
X006043Y008469D01*
X005872Y008298D01*
X005779Y008074D01*
X005779Y007831D01*
X005872Y007607D01*
X006043Y007435D01*
X006267Y007342D01*
X005958Y007520D02*
X005441Y007520D01*
X005558Y007679D02*
X005842Y007679D01*
X005779Y007837D02*
X005621Y007837D01*
X005621Y007996D02*
X005779Y007996D01*
X005812Y008154D02*
X005587Y008154D01*
X005513Y008313D02*
X005886Y008313D01*
X006048Y008471D02*
X005352Y008471D01*
X006730Y008471D02*
X010170Y008471D01*
X010165Y008469D02*
X009994Y008298D01*
X009901Y008074D01*
X009901Y007831D01*
X009994Y007607D01*
X010165Y007435D01*
X010389Y007342D01*
X010632Y007342D01*
X010856Y007435D01*
X011028Y007607D01*
X011121Y007831D01*
X011121Y008074D01*
X011028Y008298D01*
X010856Y008469D01*
X010632Y008562D01*
X010389Y008562D01*
X010165Y008469D01*
X010009Y008313D02*
X006891Y008313D01*
X006965Y008154D02*
X009934Y008154D01*
X009901Y007996D02*
X006999Y007996D01*
X006999Y007837D02*
X009901Y007837D01*
X009964Y007679D02*
X006936Y007679D01*
X006819Y007520D02*
X010080Y007520D01*
X010342Y007362D02*
X006557Y007362D01*
X010679Y007362D02*
X011720Y007362D01*
X011458Y007520D02*
X010941Y007520D01*
X011058Y007679D02*
X011342Y007679D01*
X011279Y007837D02*
X011121Y007837D01*
X011121Y007996D02*
X011279Y007996D01*
X011312Y008154D02*
X011087Y008154D01*
X011013Y008313D02*
X011386Y008313D01*
X011548Y008471D02*
X010852Y008471D01*
X011225Y011958D02*
X021400Y011958D01*
X021400Y012117D02*
X014282Y012117D01*
X014359Y012275D02*
X021400Y012275D01*
X021400Y012434D02*
X014358Y012434D01*
X014277Y012592D02*
X021400Y012592D01*
X018285Y016396D02*
X017673Y016396D01*
X017756Y016238D02*
X018126Y016238D01*
X017776Y016079D02*
X017760Y016079D01*
X021376Y020993D02*
X021400Y020993D01*
X021400Y021151D02*
X021259Y021151D01*
X021131Y022261D02*
X021400Y022261D01*
X021400Y022419D02*
X021325Y022419D01*
X020330Y022736D02*
X016203Y022736D01*
X012818Y016396D02*
X012763Y016396D01*
X012646Y016238D02*
X012605Y016238D01*
X012600Y016079D02*
X012446Y016079D01*
X011345Y012117D02*
X013678Y012117D01*
D18*
X013980Y012352D03*
X013080Y011452D03*
X012180Y015252D03*
X011780Y015752D03*
X012980Y016052D03*
X013880Y015752D03*
X015080Y015652D03*
X016380Y014652D03*
X017180Y013752D03*
X017780Y014352D03*
X017980Y015752D03*
X017380Y016152D03*
X016380Y017452D03*
X013180Y017152D03*
X012280Y017352D03*
X010480Y018352D03*
X009280Y016052D03*
X009680Y015052D03*
X009380Y012452D03*
X007080Y011552D03*
X006380Y014152D03*
X005280Y014152D03*
X004480Y015652D03*
X005780Y017352D03*
X005580Y018552D03*
X004580Y020252D03*
X003680Y011752D03*
X018680Y011352D03*
D19*
X017180Y013752D02*
X017780Y014352D01*
X016480Y014252D02*
X017980Y015652D01*
X017980Y015752D01*
X018880Y016652D01*
X020480Y016652D01*
X020580Y016752D01*
X020880Y016752D01*
X017380Y016152D02*
X017380Y015652D01*
X016380Y014652D01*
X016480Y014252D02*
X011080Y014252D01*
X009280Y016052D01*
X011780Y015752D02*
X013180Y017152D01*
X012280Y017352D02*
X008780Y020852D01*
X003080Y020852D01*
X002180Y021752D01*
X001880Y021752D01*
X001880Y022752D02*
X002080Y022952D01*
X007580Y022952D01*
X010180Y025552D01*
X012680Y025552D01*
X014380Y023852D01*
X014380Y022852D02*
X015980Y022852D01*
X020880Y027752D01*
X012980Y016052D02*
X012180Y015252D01*
X012980Y016052D02*
X013280Y015752D01*
X013880Y015752D01*
X013880Y012452D02*
X011280Y012452D01*
X011080Y012152D01*
X009680Y012152D01*
X009380Y012452D01*
X008980Y012452D01*
X007780Y011152D01*
X004280Y011152D01*
X003680Y011752D01*
X005280Y014152D02*
X006380Y014152D01*
X005580Y018552D02*
X003580Y020552D01*
X002080Y020552D01*
X001880Y020752D01*
X013880Y012452D02*
X013980Y012352D01*
M02*
