%
M48
M72
T01C0.0240
T02C0.0315
T03C0.0320
T04C0.0394
T05C0.0400
T06C0.0787
%
T01
X7080Y11552
X6380Y14152
X5280Y14152
X4480Y15652
X5780Y17352
X5580Y18552
X4580Y20252
X9280Y16052
X9680Y15052
X9380Y12452
X11780Y15752
X12180Y15252
X12980Y16052
X13880Y15752
X15080Y15652
X16380Y14652
X17180Y13752
X17780Y14352
X17980Y15752
X17380Y16152
X16380Y17452
X13180Y17152
X12280Y17352
X10480Y18352
X13980Y12352
X13080Y11452
X18680Y11352
X3680Y11752
T02
X6280Y25752
T03
X8080Y22552
X8080Y21552
X11380Y21852
X11380Y22852
X11380Y23852
X11380Y24852
X14380Y24852
X14380Y23852
X14380Y22852
X14380Y21852
X17680Y23352
X18680Y23352
T04
X5011Y7952
X6389Y7952
X10511Y7952
X11889Y7952
X16011Y8052
X17389Y8052
T05
X20880Y13752
X20880Y14752
X20880Y15752
X20880Y16752
X20880Y17752
X20880Y18752
X20880Y19752
X20880Y20752
X20880Y22752
X20880Y23752
X20880Y24752
X20880Y25752
X20880Y26752
X20880Y27752
X1880Y27752
X1880Y26752
X1880Y25752
X1880Y24752
X1880Y23752
X1880Y22752
X1880Y21752
X1880Y20752
X1880Y19252
X1880Y18252
X1880Y17252
X1880Y16252
X1880Y15252
X1880Y14252
X1880Y13252
X1880Y12252
X1880Y11252
X1880Y10252
T06
X3680Y25752
X8880Y25752
M30
