<?xml version="1.0" encoding="utf-8"?>
<!-- Generator: Adobe Illustrator 18.1.1, SVG Export Plug-In . SVG Version: 6.00 Build 0)  -->
<svg version="1.1" id="Layer_1" xmlns="http://www.w3.org/2000/svg" xmlns:xlink="http://www.w3.org/1999/xlink" x="0px" y="0px"
	 viewBox="0 0 128 128" enable-background="new 0 0 128 128" xml:space="preserve">
<g>
	<path fill="none" stroke="#3C2415" stroke-width="4" stroke-linecap="round" stroke-linejoin="round" stroke-miterlimit="10" d="
		M79.4,93.8c1.4-11.2,8.5-19.6,13.8-28.9c4.4-7.7,7.3-15.9,5.8-25.2c-2.1-13.3-10.6-20-22.7-23.8c-13.4-4.2-25.1-1.4-35.5,7.3
		c-10.5,8.8-11,20.2-7.5,32.4c2.3,7.8,6.4,14.7,11.1,21.1c5.6,7.7,6.8,16.2,6.1,25.3c-0.4,5.9,1.7,7,7.7,6.4c5.2-0.5,10.7-1,16,0.6
		c2.9,0.9,5.8-0.9,5.5-3.8c-0.3-3.6,0.9-7.3-0.4-10.8"/>
	<path fill="none" stroke="#3C2415" stroke-width="4" stroke-linecap="round" stroke-linejoin="round" stroke-miterlimit="10" d="
		M78.9,57.2c-4.9,2.5-4.4,7.5-5.1,11.9c-1.3,8-3.4,15.8-3.6,24"/>
	<path fill="none" stroke="#3C2415" stroke-width="4" stroke-linecap="round" stroke-linejoin="round" stroke-miterlimit="10" d="
		M51.1,56.7c4.8,3.9,5,9.3,5.8,14.9c1.1,7,3.2,13.9,3.4,21.1"/>
	<path fill="none" stroke="#3C2415" stroke-width="4" stroke-linecap="round" stroke-linejoin="round" stroke-miterlimit="10" d="
		M78.9,101c-9.1,0-18.2,0-27.3,0"/>
	<path fill="none" stroke="#3C2415" stroke-width="4" stroke-linecap="round" stroke-linejoin="round" stroke-miterlimit="10" d="
		M66,54.6c1.9-1.8,4.5-3.7,3.5-6.6c-0.7-2.1-2.9-4-5.5-3.1c-2.4,0.8-3.3,2.7-2.8,5.6c0.4,2,1.7,2.8,2.7,4.1"/>
	<path fill="none" stroke="#3C2415" stroke-width="4" stroke-linecap="round" stroke-linejoin="round" stroke-miterlimit="10" d="
		M55.7,110.3c4.5,7.6,13.2,8.4,19.6,0"/>
	<path fill="none" stroke="#3C2415" stroke-width="4" stroke-linecap="round" stroke-linejoin="round" stroke-miterlimit="10" d="
		M65,55.7c3.3,1.6,5.9,4.6,9.8,5.2"/>
	<path fill="none" stroke="#3C2415" stroke-width="4" stroke-linecap="round" stroke-linejoin="round" stroke-miterlimit="10" d="
		M78.9,93.8c-9.1-0.9-18.2-0.8-27.3,0"/>
	<path fill="none" stroke="#3C2415" stroke-width="4" stroke-linecap="round" stroke-linejoin="round" stroke-miterlimit="10" d="
		M64,56.7c-2.5,1.8-5.2,3.4-8.2,4.1"/>
</g>
</svg>
